# xmcd CD database file
#
# Track frame offsets:
#	150
#	15004
#	29764
#	42771
#	60052
#	76283
#	89197
#	105418
#	121986
#	132551
#	147383
#	164517
#
# Disc length: 2593 seconds
#
# Revision: 2
# Processed by: cddbd v1.5.2PL0 Copyright (c) Steve Scherf et al.
# Submitted via: CDex 1.70beta2
#
DISCID=980a1f0c
DTITLE=Vatious - Feelings 31 - (unforgettable)
DYEAR=2005
DGENRE=Jazz
TTITLE0=Billie Holiday - Lover man (Oh, where can you be?)
TTITLE1=Louis Armstrong - Dream a little dream of me
TTITLE2=Nat King Cole - NAture Boy
TTITLE3=Gal Costa - Baby
TTITLE4=Nina Simone - Ne me quitte pas
TTITLE5=Tony Bennett - I left my heart in San Francisco
TTITLE6=Bette Midler - Shiver me timbers
TTITLE7=Sarah Vaughan - It never entered my mind
TTITLE8=Amalia Rodriguez - Coimbra
TTITLE9=Bing Crosby - I'll never fall in love again
TTITLE10=Yves Montand - Barbara
TTITLE11=Mahalia Jackson - Summertime/Sometimes I feel like a motherless child
EXTD=YEAR: 2005
EXTT0=
EXTT1=
EXTT2=
EXTT3=
EXTT4=
EXTT5=
EXTT6=
EXTT7=
EXTT8=
EXTT9=
EXTT10=
EXTT11=
PLAYORDER=
